PathFileType	4	(X/Y/Z)	OpenSim_Sub04_EMGStiffKnee_Accel.trc
DataRate	CameraRate	NumFrames	NumMarkers	Units	OrigDataRate	OrigDataStartFrame	OrigNumFrames
100	100	13	8	m	100	7243	8277
Frame#	Time	torso_imu_offset_imu	pelvis_imu_offset_imu	tibia_r_imu_offset_imu	femur_r_imu_offset_imu	tibia_l_imu_offset_imu	femur_l_imu_offset_imu	toes_r_imu_offset_imu	toes_l_imu_offset_imu
				X1	Y1	Z1	X2	Y2	Z2	X3	Y3	Z3	X4	Y4	Z4	X5	Y5	Z5	X6	Y6	Z6	X7	Y7	Z7	X8		Y8	Z8	

7243	72.42000000	-6.57764287	-0.61570611	8.20717709	8.78260752	-1.64268154	2.56629514	6.91071367	6.79429213	0.53913820	4.96205067	-3.99370559	3.77693606	9.74054164	-2.04068080	-0.06229821	9.59013463	0.50439530	-2.92747478	17.70721842	-1.45139532	2.03623913	5.98192703	2.60652251	10.26284978
7244	72.43000000	-6.53458901	-0.58987598	8.27169030	8.93339827	-1.62305760	2.41498850	7.18910723	5.44582423	0.53118839	4.75610386	-3.89327025	4.16817202	9.89544805	-2.15924320	-0.17205350	9.39551709	0.90268787	-2.84562386	18.91247682	-1.21059392	0.24627698	5.72379472	2.62360066	10.43803034
7245	72.44000000	-6.55567846	-0.64878873	8.24957594	9.09767027	-1.48767305	2.33792223	7.49231404	4.74507310	0.56615461	4.71494153	-3.95467164	4.31033473	10.11096915	-2.12951526	-0.23062104	9.19762203	1.36309920	-2.78585928	20.73885829	-1.15315889	-1.48263367	5.36269372	2.70637161	10.70476674
7246	72.45000000	-6.63875426	-0.78340936	8.30573442	9.16655503	-1.25733732	2.34866670	7.64345562	4.47525977	0.17669418	4.71531629	-4.22301980	4.08557868	10.15523648	-1.68881026	-0.15782108	9.02408231	1.88610206	-2.80427725	20.83453228	-0.40840566	-3.27720753	5.67366478	2.76015441	10.45413432
7247	72.46000000	-6.83992861	-0.90638582	8.57115239	9.09097199	-1.02997853	2.43154923	7.59071422	4.35077608	-0.30451409	4.67547507	-4.67747854	3.67349456	10.07237593	-0.91551670	0.05174912	8.84260787	2.12819892	-2.85928059	19.87494511	1.46424414	-4.81619784	5.89871767	2.49051187	10.32047059
7248	72.47000000	-7.05362292	-1.02254849	8.82377678	8.92386851	-0.88016030	2.54120036	7.40386939	4.56881039	-0.06856146	4.77347770	-5.39060467	3.20598308	10.01088994	-0.43200471	0.35561386	8.68860161	2.02240675	-2.94570328	19.67186915	3.14064510	-5.55030287	5.68135892	2.54296275	10.50905357
7249	72.48000000	-7.24022783	-1.14924798	8.87726737	8.85332297	-0.79469989	2.60487693	7.00742673	4.96789934	-0.05533371	5.15808126	-6.49492592	2.82403813	9.89242781	-0.56494336	0.48403956	8.79884121	1.71998047	-2.90494318	18.86957455	1.02868784	-7.75637243	5.12526903	2.76157988	10.81993801
7250	72.49000000	-7.40088914	-1.26564985	8.83536036	8.88611461	-0.66987100	2.51219316	6.39652318	5.16981748	-0.61870320	5.75166987	-7.65060491	2.66521328	9.78461107	-1.10072986	0.57185614	9.02921541	1.23090913	-2.81120502	19.80655092	-1.09243380	-10.66565550	5.12249823	2.32664649	10.90568403
7251	72.50000000	-7.47029312	-1.28055198	8.93370570	9.07349271	-0.50606736	2.42161205	5.92348529	5.41879534	-0.26667486	6.24941999	-8.57351220	2.48879274	9.80784366	-1.59370582	0.71126637	9.29333126	0.75937588	-2.89026938	20.88554802	2.13387737	-12.69737817	5.58799668	2.15966118	10.81859038
7252	72.51000000	-7.59080427	-1.25312547	9.27903647	9.43315505	-0.28270730	2.28008127	5.58851554	6.35277802	0.21770740	6.54061903	-9.22950327	2.09392413	9.93252930	-2.15201922	0.79557461	9.58074928	0.40705335	-3.00623710	21.32742963	3.44579666	-13.68635493	5.79418529	1.95180766	10.78822121
7253	72.52000000	-7.75482018	-1.22215527	9.47752719	9.89852972	-0.08132296	2.22090812	5.30492831	7.48891245	0.33069078	6.74830649	-9.46146358	1.60733112	10.06067488	-2.76479018	0.72536093	9.73371049	0.43932336	-3.06774485	25.64603368	9.20884258	-19.44037308	5.57678702	1.78380481	11.01509015
7254	72.53000000	-7.91697262	-1.13369381	9.62406979	10.38190581	0.22469674	2.67150136	5.35132522	8.55920881	2.41957461	6.91078674	-9.48086228	1.55140014	10.38307142	-3.36040329	0.99005654	9.81067164	0.81153347	-3.11177287	23.25915537	11.17851372	-7.95693225	5.26782277	2.03705173	11.42498218
7255	72.54000000	-8.34137109	-1.09375961	9.92323027	10.85933241	0.60990099	4.01153005	7.97444731	8.30043507	3.78998488	7.21243680	-9.56587093	2.29703894	10.68306417	-3.79258764	1.02344555	9.80743857	1.08147489	-3.19943856	21.42751923	-10.57469355	13.14125033	5.52072754	2.08736001	11.41679952
